<svg xmlns="http://www.w3.org/2000/svg" xmlns:xlink="http://www.w3.org/1999/xlink">
    <symbol id="icon-arrow" viewBox="0 0 70 22">
        <title>New Project</title>
        <style>
            .s0 { fill: #ffffff } 
        </style>
        <g id="btn">
            <path id="Shape 1" class="s0" d="m0.1 9.7h66.7v2.6h-66.7zm57.2-7.6l1.9-1.9 10.7 10.7-10.7 10.8-1.9-1.9 8.8-8.9z"/>
        </g>
    </symbol>
    <symbol id='icon-evelop' viewBox="0 0 13 11">
        <style>.a{fill:#56c5d0}</style><path fill-rule="evenodd" class="a" d="m1.8 0.2h9.2l1.7 1.7v7.5l-1.7 1.6h-9.2l-1.6-1.6v-7.5zm-0.9 2.5v5.8l1.7 1.7h7.5l1.7-1.7v-5.8l-1.7-1.7h-7.5zm1.7 0.8l0.8-0.8 2.5 2.5h0.8l2.5-2.5 0.9 0.8-3.4 3.4h-0.8z"/>
    </symbol>
    <symbol id="icon-location" viewBox="0 0 13 18">
        <style>.a{fill:#56c5d0}</style><path fill-rule="evenodd" class="a" d="m6.5 0c3.6 0 6.5 2.8 6.5 6.3 0 3.5-6.5 11.7-6.5 11.7 0 0-6.5-8.2-6.5-11.7 0-3.5 2.9-6.3 6.5-6.3zm-2.7 6.7c0 1.4 1.2 2.6 2.7 2.6 1.5 0 2.7-1.2 2.7-2.6 0-1.5-1.2-2.7-2.7-2.7-1.5 0-2.7 1.2-2.7 2.7z"/>
    </symbol>
    <symbol id="icon-navbar" viewBox="0 0 16 12">
        <style>.a{fill:#429ea6}</style><path class="a" d="m0 0h16v2h-16zm0 5h16v2h-16zm0 5h16v2h-16z"/>
    </symbol>
    <symbol id="icon-close" viewBox="0 0 14 14">
        <style>.a{fill:#429ea6}</style><path class="a" d="m2.1 0.6l11.3 11.3-1.5 1.5-11.3-11.3zm-1.4 11.3l11.3-11.3 1.4 1.4-11.3 11.3z"/>
    </symbol>
</svg>